<?xml version="1.0" encoding="utf-8"?>
<!-- Generator: Adobe Illustrator 19.2.1, SVG Export Plug-In . SVG Version: 6.00 Build 0)  -->
<svg version="1.1" id="layer" xmlns="http://www.w3.org/2000/svg" xmlns:xlink="http://www.w3.org/1999/xlink" x="0px" y="0px"
	 viewBox="0 0 652 652" style="enable-background:new 0 0 652 652;" xml:space="preserve">
<style type="text/css">
	.st0{fill:#0096D6;}
</style>
<g>
	<g>
		<path class="st0" d="M267.4,266.3v40.2c0,6.3-1.8,11.2-5.3,14.6c-3.5,3.4-7.5,5.1-13.1,5.1c-5.7,0-9.8-1.7-13.2-5.1
			c-3.5-3.4-5.3-8.3-5.3-14.6v-40.2h10.9v40.2c0,3.6,0.7,6.2,2.1,8c1.4,1.7,2.9,2.5,5.4,2.5c2.6,0,4-0.8,5.4-2.4
			c1.4-1.6,2.1-4.3,2.1-8.1v-40.2H267.4z"/>
		<path class="st0" d="M316.1,325.5h-10.9L288,287.7l-0.3,0.1v37.7h-11v-59.2h11l17.2,37.8l0.3-0.1v-37.7h10.9V325.5z"/>
		<path class="st0" d="M338.1,325.5h-10.9v-59.2h10.9V325.5z"/>
		<path class="st0" d="M366.1,310.3l0.4,2.3h0.3l0.4-2.2l9.3-44.2h11.5l-15.7,59.2h-11.4l-15.7-59.1h11.5L366.1,310.3z"/>
		<path class="st0" d="M424.6,299.5h-18.8v16.7H428v9.3h-33.2v-59.2h33.1v9.3h-22.1v14.7h18.8L424.6,299.5L424.6,299.5z"/>
		<path class="st0" d="M447.3,301.9v23.5h-10.9v-59.1h18.3c5.6,0,9.8,1.5,13,4.6c3.1,3.1,4.7,7.3,4.7,12.8c0,3.1-0.7,5.7-1.9,8
			c-1.3,2.3-3.2,4-5.7,5.3c2.9,1,5,2.7,6.2,5.1c1.3,2.4,1.9,5.4,1.9,8.9v4.2c0,1.6,0.2,3.4,0.5,5.2c0.3,1.9,1,3.2,1.9,4v0.8H464
			c-0.9-0.8-1.4-2.3-1.7-4.2c-0.3-1.9-0.3-4-0.3-6v-4c0-2.9-0.6-5.2-1.7-6.9c-1.2-1.6-2.8-2.4-4.9-2.4L447.3,301.9L447.3,301.9z
			 M447.3,292.8h7.3c2.3,0,4-0.8,5.1-2.2c1.2-1.4,1.8-3.4,1.8-6.1s-0.6-4.9-1.8-6.5c-1.2-1.6-2.9-2.4-5-2.4h-7.4V292.8z"/>
		<path class="st0" d="M507.3,310c0-2.3-0.6-4.1-1.7-5.5c-1.1-1.3-3.1-2.7-6-4c-5.8-2.1-10.2-4.5-13.1-7.3
			c-2.9-2.7-4.4-6.6-4.4-11.4c0-4.9,1.7-8.8,5.1-11.9c3.4-3,7.7-4.5,13-4.5c5.4,0,9.7,1.7,13,5.1c3.4,3.4,5,7.7,4.9,12.9l-0.1,0.3
			h-10.7c0-2.7-0.7-4.9-1.9-6.6c-1.3-1.7-3.1-2.5-5.5-2.5c-2.2,0-3.9,0.7-5.1,2.1c-1.3,1.4-1.9,3.1-1.9,5.2c0,1.9,0.7,3.5,2,4.8
			c1.3,1.3,3.7,2.7,7.1,4.2c5.3,1.9,9.3,4.3,12,7.2c2.7,2.9,4,6.8,4,11.8c0,5.1-1.6,9.1-4.9,12c-3.3,2.9-7.6,4.4-13,4.4
			s-10-1.7-13.9-5c-4-3.3-5.8-8-5.7-14.1l0.1-0.3h10.7c0,3.6,0.8,6.3,2.2,7.9c1.4,1.6,3.7,2.4,6.6,2.4c2.4,0,4-0.7,5.1-1.9
			C506.7,314,507.3,312.3,507.3,310z"/>
		<path class="st0" d="M538.6,325.5h-10.9v-59.2h10.9V325.5z"/>
		<path class="st0" d="M581.6,275.5H569v49.9H558v-49.9h-12.5v-9.3h36.2L581.6,275.5L581.6,275.5z"/>
		<path class="st0" d="M618.7,299.5h-18.8v16.7h22.2v9.3h-33.2v-59.2H622v9.3h-22.1v14.7h18.8V299.5z M605.7,251.3h11.5l0.1,0.3
			l-9.6,10.6h-8.8L605.7,251.3z"/>
	</g>
	<path class="st0" d="M159.4,337.2c0,21.5,0,49.3,0,49.4c0,22.4-18.2,40.6-40.6,40.6c-0.2,0-0.3,0-0.4,0l0,0l0,0l0,0l0,0
		c-0.2,0-0.3,0-0.4,0c-22.4,0-40.6-18.3-40.6-40.6c0-0.1,0-27.9,0-49.4h-12V374c0,7.4,0,12.4,0,12.5c0,28.9,23.6,52.5,52.5,52.5
		c0.2,0,0.3,0,0.3,0c0.1,0,0.3,0,0.3,0c28.9,0,52.5-23.6,52.5-52.5c0-0.1,0-5,0-12.5v-36.9H159.4z"/>
	<rect x="42" y="290" class="st0" width="153.1" height="11.8"/>
</g>
<g>
	<path d="M230.5,396.3v-59.2h17c5.7,0,10.5,2.3,14.3,6.9c3.8,4.6,5.6,10.5,5.6,17.8v9.9c0,7.2-1.9,13.1-5.6,17.7
		c-3.8,4.5-8.5,6.9-14.3,6.9H230.5z M241.4,346.4v40.7h5.4c3,0,5.4-1.4,7.1-4.2c1.7-2.8,2.5-6.6,2.5-11.2v-10
		c0-4.6-0.8-8.3-2.5-11.1c-1.7-2.8-4-4.2-7.1-4.2L241.4,346.4L241.4,346.4z"/>
	<path d="M306.7,370.3h-18.8v16.7h22.2v9.3h-33.2v-59.2H310v9.3h-22.1v14.7h18.8V370.3z"/>
	<path d="M349,387.1h19.1v9.3H338v-59.2h11L349,387.1L349,387.1z"/>
	<path d="M384,362.5h0.3l9.3-25.3h11.9l-16.1,38.1v21h-10.9v-21.8l-15.8-37.4h12L384,362.5z"/>
	<path d="M447.6,375.1c0,6.9-1.8,12.4-5.4,16.2c-3.5,3.9-8.3,5.8-14.3,5.8c-6,0-10.7-1.9-14.2-5.8s-5.3-9.3-5.3-16.2v-16.6
		c0-6.9,1.8-12.3,5.3-16.2c3.5-4,8.2-5.9,14.2-5.9c5.9,0,10.7,1.9,14.3,5.9c3.6,4,5.4,9.3,5.4,16.2V375.1z M436.8,358.4
		c0-4.2-0.8-7.4-2.3-9.6s-3.7-3.2-6.5-3.2c-2.9,0-5,1.1-6.5,3.2s-2.2,5.4-2.2,9.6v16.7c0,4.3,0.8,7.5,2.2,9.7
		c1.4,2.1,3.6,3.2,6.5,3.2s5-1.1,6.5-3.2s2.3-5.4,2.3-9.7V358.4z"/>
	<path d="M496.5,396.3h-10.9l-17.2-37.8l-0.3,0.1v37.7h-11v-59.2h11l17.2,37.8l0.3-0.1v-37.7h10.9V396.3z"/>
	<path d="M183.2,337.2c0,21.5,0,49.1,0,49.4c0,35.5-28.9,64.4-64.4,64.4c-0.1,0-0.3,0-0.3,0l0,0l0,0l0,0l0,0c-0.1,0-0.3,0-0.3,0
		c-35.5,0-64.4-28.9-64.4-64.4c0-0.3,0-28,0-49.4h-12c0,21.4,0,49.1,0,49.4c0,42,34.2,76.2,76.2,76.2c0.2,0,0.3,0,0.4,0s0.3,0,0.4,0
		c42,0,76.2-34.2,76.2-76.2c0-0.3,0-28,0-49.4H183.2z"/>
	<path d="M135.5,337.2c0,21.9,0,48.9,0,49c0,9.4-7.6,17.1-17,17.1l0,0h-0.1h-0.1l0,0c-9.3-0.1-17-7.7-17-17.1c0-0.1,0-27.1,0-49
		H89.3c0,21.9,0,48.9,0,49c0,16,13,29,29,29l0,0l0,0l0,0l0,0c16,0,29-13,29-29c0-0.1,0-27.1,0-49H135.5z"/>
	<rect x="42" y="313.7" width="153.1" height="11.8"/>
	<path d="M198.7,203.1c0,0-0.3-0.4-0.8-1c-0.5-0.6-1.7-1.3-2.4-1.9c-0.6-0.6-1.3-1.5-1.7-1.8c-0.3-0.3-1-1.3-1.3-1.6
		c-0.3-0.3-0.8-2.1-0.8-2.3c0-0.2-0.2-0.8-0.8-1c-0.3-0.2-1.2-0.7-1.7-1.1c-0.5-0.4-1.9-1.8-1.9-1.8s-0.3-2.2-0.9-3.4
		c-0.5-1.2-0.8-1.6-1-2.1c-0.3-0.4-0.4-0.5-0.5-1.3c0,0-0.8-0.1-1.4,0.4c0,0-1.4-1.1-2.9-1.9c-1.4-0.8-3.1-1.8-3.8-1.9
		c-0.7-0.2-1.6-0.7-1.9-1c0,0-1-0.1-1.9,0.1c-0.6,0.1-2.5,0.3-3.6,0.4c-1,0.2-3.6,0.6-4.2,0.6c-1.3,0.1-1.5,0.2-3.4,0.5
		c0,0-1.4,0.3-1.9,0.4c-0.5,0.2-2.1,0.8-3.2,0.9c-1.2,0.2-2.4,0.2-3.9,0.4c-0.7,0.1-3.1,1.1-4.3,1.3c-0.5,0.2-1.2,0.3-1.2,0.3
		s0.3,0.8,0.8,0.9c0,0-0.3,0.8-1.1,1.1c-0.8,0.4-1.6,0.8-2.7,1.2c-1.1,0.3-2.9,1.1-3.3,1.4c0,0,0.3,0.7,1,1c0,0,0.2,0.1-0.8,0.6
		c-0.9,0.5-3.1,1.4-4,1.9c-1,0.4-2.4,1.3-3,1.6c-0.9,0.5-1,0.5-1.9,1.1c-0.9,0.5-0.4,0.5-0.4,0.5s0.4,0.1,1.1,0.2
		c0.7,0.1,1,0.3,1,0.3s0.1,0.3-0.4,0.8c-0.4,0.4-1.1,1.3-2.6,2.4c-0.8,0.5-1.4,1.1-2.3,1.7c-0.8,0.6-1.7,1.6-2,1.8l0.9,0.8l0,0.4
		c-0.4,0.3-0.8,0.5-1.5,0.8c-0.7,0.3-6.6,1.1-13.5,1c-11.4-0.2-14.6-1.6-20.4-1.9c-5.9-0.3-10.2,1-15.6,2.6c-1,0.3-1.9,0.7-2.5,0.9
		c-2.3,0.5-4.5,1.1-6.6,1.9c-7.4,2.9-20.4,13.5-24.1,15.1c-3.6,1.5-5.6,1.6-8.2,1.3c-2.5-0.3-3.5-0.9-3.5-0.9s-1.3-2.8-2.8-3.9
		c-1.9-1.4-6.7-3.1-6.7-3.1s-0.8,3.1,0.8,6.1c2,3.6,6.1,3.4,7.5,4c2.5,1,8.6,2.3,13.7,0.2c4.6-1.9,9.3-4.9,12.5-6.7
		c3.3-1.9,8.6-3.4,13-4c-0.2,0.8-0.4,1.5-0.7,2.2c-1.3,3.8-5.9,11.9-6.8,13.2c-1.1,1.6-5.4,6.8-6.1,7.4c-0.8,0.7-2.6,1.3-4.9,1.8
		c-2.5,0.5-9.8,1.2-9.8,1.2s-1.3,6.5-2.9,10.4c-0.7,1.6-2.2,4.8-2.2,4.8s2.7,2.5,3.5,5.7c0.4,0.8,1.1,2.1,1.7,2.5v11.2l0,0v0.3
		h153.1v-11.8l0,0c0.3-0.9,0.7-2.9-1.1-3.8c-2.3-1.1-0.4-1.9-5.7-4c-1.5-0.6-4-1.3-4.9-2.1c-0.8-0.7-5.5-7.1-7.7-9.8
		c-2.3-2.7-7-8.9-7-8.9l-1-2.4l0.2-1.9c0.3-0.3,0.6-0.6,0.8-0.9c0.8-0.9,2.1-2.2,2.4-2.9c0.8-1.8,0.6-0.1,1.1-1
		c0.4-0.8,1.9-1.6,2.6-2c0.7-0.4,1.6-1.6,1.6-1.6s0,0.7,0.3,1.4c0,0,0.4-0.3,1.2-1.3c0.8-0.9,0.5-1,1.3-1.9c0.9-0.8,1.5-2.6,2.1-3.8
		c0.6-1.1,0.9-1.4,1.1-1.7c0,0,0.3,0.9,0.6,1.5c0,0,0.6-0.6,0.8-1.1c0.3-0.6,0.4-1.3,0.8-1.9c0.4-0.7,0.7-1.5,1.1-1.7s1.2-0.7,2-0.7
		c0.6,0,1.4,0.3,2.2,0.5c0.7,0.2,1-0.2,1.5,0.5c0.5,0.7,1.2,1,1.2,1s0-0.1,0.6-0.4c0.6-0.3,0.7-0.3,1.2-0.7c0.6-0.4,0.4-0.6,0.8-1
		c0.4-0.4,0.7-0.8,0.9-1.6c0.2-0.8-0.2-1.2,0.3-1.5c0.3-0.3,1.1-0.3,1.4-1.2c0.3-0.8,0.3-1,0.4-1.1c0.2-0.2,0.3-0.8,0.3-0.8
		s1-0.8,1.2-1.5c0.2-0.7,0.3-0.9,0.6-1.3C200.3,204.8,200,203.9,198.7,203.1z M119,242c1.1,0.5,3.7,1.7,6.6,2.8
		c0.3,0.8,0.5,1.9,0.4,3.4c-0.3,3.8-4,8.5-4,8.5s1.9,4.7,2.4,5.4c0.5,0.7,2.3,2.1,2.9,3.2c0.2,0.3,0.4,0.8,0.5,1.2h-10.3
		c0.2-1.4-0.8-2-1-2.3c-0.6-0.6-1.1-1.7-2.4-2.2c-4.8-1.7-4.8-1-6.1-2.1c-0.9-0.8-3.4-2.4-3.9-3.4c-0.5-1-1.5-5.4-1.5-9.3
		c0-2.3-0.2-4.5-0.3-5.8C106.6,240.8,113.6,239.7,119,242z M47.5,252.3c1.5-0.7,5,0.7,8.4,0.1c5.2-0.9,12.7-3.5,15.2-4.7
		c2.3-1,6.4-4.9,7.7-6c1.3-1,2.5-1.3,2.5-1.3s1.5,1.6,4.5,4.3c3,2.7,4.1,4,5.1,4.9c1,0.8,2.4,2.7,2.5,3.4c0.8,2.7,0.5,7.2,0.5,7.2
		s4.8,1.7,6.3,3c1.1,0.9,2,2.5,2.4,3.4H54.1c0.1-0.8,0.2-2.6-1.6-3.2c-1.3-0.5-1-1-3.7-1.9c-1.1-0.4-1.7-0.8-2.3-2.3
		c-0.5-1.4-0.6-3.8-0.6-3.8S46.2,252.8,47.5,252.3z M168.7,256.8c0,0,5,1.9,6.1,3.5c0.8,1.1,5.2,2.4,5.2,2.4s1.3,0.1,3.1,1.7
		c1.3,1.3,1.8,1.8,2.6,2h-45.3c0.2-0.8,0.2-1.9-0.9-2.6c-0.8-0.4-1.3-1.2-2.2-1.6c-3.1-1.5-3.4-0.9-4.8-2c-0.8-0.5-1.3-2.9-1.3-2.9
		s5.7-5.6,6.8-7.1c1.3-1.8,1.9-2.5,2.5-3.4c4.3-0.4,8.8-1.2,10.3-2c0.4-0.3,0.8-0.5,1.2-0.8c0.5,0.3,0.9,0.5,1.3,0.8
		c2.3,1.3,8.1,3.8,10.1,5.4C165.8,251.9,168.7,256.8,168.7,256.8z"/>
</g>
</svg>
