<?xml version="1.0" encoding="UTF-8" standalone="no"?>
<svg
   xmlns:dc="http://purl.org/dc/elements/1.1/"
   xmlns:cc="http://creativecommons.org/ns#"
   xmlns:rdf="http://www.w3.org/1999/02/22-rdf-syntax-ns#"
   xmlns:svg="http://www.w3.org/2000/svg"
   xmlns="http://www.w3.org/2000/svg"
   viewBox="0 0 708.66125 294.095"
   height="294.095"
   width="708.66125"
   xml:space="preserve"
   version="1.1"
   id="svg2"><metadata
     id="metadata8"><rdf:RDF><cc:Work
         rdf:about=""><dc:format>image/svg+xml</dc:format><dc:type
           rdf:resource="http://purl.org/dc/dcmitype/StillImage" /></cc:Work></rdf:RDF></metadata><defs
     id="defs6"><clipPath
       id="clipPath16"
       clipPathUnits="userSpaceOnUse"><path
         id="path18"
         d="m 0,235.276 566.929,0 L 566.929,0 0,0 0,235.276 Z" /></clipPath></defs><g
     transform="matrix(1.25,0,0,-1.25,0,294.095)"
     id="g10"><g
       id="g12"><g
         clip-path="url(#clipPath16)"
         id="g14"><g
           transform="translate(40.2777,197.5738)"
           id="g20"><path
             id="path22"
             style="fill:#231f20;fill-opacity:1;fill-rule:nonzero;stroke:none"
             d="m 0,0 c 0,-0.806 -0.149,-1.383 -0.446,-1.731 -0.298,-0.348 -0.59,-0.522 -1.158,-0.522 -0.55,0 -0.859,0.183 -1.162,0.548 C -3.069,-1.34 -3.221,-0.771 -3.221,0 l 0,8.621 -2.347,0 0,-8.621 c 0,-1.346 0.376,-2.387 1.128,-3.123 0.752,-0.737 1.619,-1.105 2.836,-1.105 1.218,0 2.062,0.367 2.815,1.101 0.752,0.733 1.128,1.776 1.128,3.127 l 0,8.621 L 0,8.621 0,0 Z" /></g><g
           transform="translate(50.7219,198.1218)"
           id="g24"><path
             id="path26"
             style="fill:#231f20;fill-opacity:1;fill-rule:nonzero;stroke:none"
             d="m 0,0 -0.049,-0.017 -3.678,8.09 -2.355,0 0,-12.666 2.355,0 0,8.081 0.05,0.018 3.677,-8.099 2.339,0 0,12.666 L 0,8.073 0,0 Z" /></g><path
           id="path28"
           style="fill:#231f20;fill-opacity:1;fill-rule:nonzero;stroke:none"
           d="m 57.763,206.195 -2.339,0 0,-12.666 2.339,0 0,12.666 z" /><g
           transform="translate(65.1121,193.5287)"
           id="g30"><path
             id="path32"
             style="fill:#231f20;fill-opacity:1;fill-rule:nonzero;stroke:none"
             d="m 0,0 3.364,12.666 -2.472,0 -2.008,-9.456 -0.091,-0.461 -0.049,0 -0.091,0.487 -1.992,9.43 -2.471,0 L -2.446,0 0,0 Z" /></g><g
           transform="translate(76.9973,195.5033)"
           id="g34"><path
             id="path36"
             style="fill:#231f20;fill-opacity:1;fill-rule:nonzero;stroke:none"
             d="m 0,0 -4.752,0 0,3.584 4.041,0 0,1.975 -4.041,0 0,3.158 4.735,0 0,1.974 -7.09,0 0,-12.666 7.107,0 L 0,0 Z" /></g><g
           transform="translate(82.7246,200.5401)"
           id="g38"><path
             id="path40"
             style="fill:#231f20;fill-opacity:1;fill-rule:nonzero;stroke:none"
             d="m 0,0 -1.57,0 0,3.671 1.578,0 C 0.482,3.671 0.843,3.5 1.091,3.158 1.339,2.816 1.463,2.354 1.463,1.775 1.463,1.206 1.339,0.768 1.091,0.461 0.843,0.154 0.479,0 0,0 m 1.186,-2.497 c 0.245,-0.348 0.367,-0.838 0.367,-1.47 l 0,-0.861 c 0,-0.435 0.025,-0.861 0.075,-1.279 0.049,-0.417 0.171,-0.719 0.364,-0.904 l 2.429,0 0,0.182 c -0.193,0.18 -0.328,0.469 -0.405,0.866 -0.077,0.397 -0.115,0.77 -0.115,1.118 l 0,0.896 c 0,0.765 -0.137,1.403 -0.409,1.913 -0.273,0.511 -0.718,0.876 -1.335,1.096 0.54,0.285 0.95,0.666 1.231,1.144 C 3.669,0.683 3.81,1.253 3.81,1.914 3.81,3.085 3.472,4 2.797,4.658 2.122,5.317 1.193,5.646 0.008,5.646 l -3.925,0 0,-12.657 2.347,0 0,5.036 1.702,0 c 0.458,0 0.809,-0.174 1.054,-0.522" /></g><g
           transform="translate(92.9258,200.923)"
           id="g42"><path
             id="path44"
             style="fill:#231f20;fill-opacity:1;fill-rule:nonzero;stroke:none"
             d="m 0,0 c -0.722,0.331 -1.228,0.631 -1.52,0.9 -0.293,0.27 -0.438,0.614 -0.438,1.031 0,0.452 0.13,0.828 0.392,1.127 0.262,0.298 0.627,0.448 1.095,0.448 0.501,0 0.89,-0.18 1.165,-0.54 C 0.97,2.607 1.108,2.137 1.108,1.557 l 2.281,0 0.016,0.052 C 3.427,2.717 3.08,3.635 2.364,4.363 1.647,5.09 0.716,5.454 -0.43,5.454 -1.559,5.454 -2.487,5.128 -3.215,4.476 -3.942,3.823 -4.306,2.978 -4.306,1.94 c 0,-1.05 0.313,-1.866 0.938,-2.449 0.626,-0.583 1.564,-1.103 2.814,-1.561 0.612,-0.279 1.039,-0.562 1.281,-0.849 0.243,-0.287 0.364,-0.677 0.364,-1.17 0,-0.475 -0.12,-0.852 -0.359,-1.13 -0.24,-0.279 -0.608,-0.418 -1.104,-0.418 -0.633,0 -1.107,0.171 -1.421,0.513 -0.314,0.342 -0.471,0.905 -0.471,1.688 l -2.289,0 -0.017,-0.052 c -0.028,-1.317 0.379,-2.327 1.219,-3.032 0.84,-0.705 1.833,-1.057 2.979,-1.057 1.152,0 2.074,0.31 2.769,0.931 0.694,0.62 1.041,1.479 1.041,2.575 0,1.061 -0.288,1.903 -0.864,2.527 C 1.999,-0.921 1.141,-0.406 0,0" /></g><path
           id="path46"
           style="fill:#231f20;fill-opacity:1;fill-rule:nonzero;stroke:none"
           d="m 98.382,193.529 2.339,0 0,12.666 -2.339,0 0,-12.666 z" /><g
           transform="translate(102.1852,204.2199)"
           id="g48"><path
             id="path50"
             style="fill:#231f20;fill-opacity:1;fill-rule:nonzero;stroke:none"
             d="m 0,0 2.694,0 0,-10.691 2.347,0 0,10.691 2.711,0 0,1.975 L 0,1.975 0,0 Z" /></g><g
           transform="translate(117.5826,209.3611)"
           id="g52"><path
             id="path54"
             style="fill:#231f20;fill-opacity:1;fill-rule:nonzero;stroke:none"
             d="m 0,0 -0.025,0.052 -2.471,0 L -3.95,-2.257 -2.058,-2.262 0,0 Z" /></g><g
           transform="translate(113.8472,195.5033)"
           id="g56"><path
             id="path58"
             style="fill:#231f20;fill-opacity:1;fill-rule:nonzero;stroke:none"
             d="m 0,0 0,3.584 4.041,0 0,1.975 -4.041,0 0,3.158 4.735,0 0,1.974 -7.09,0 0,-12.666 7.107,0 L 4.752,0 0,0 Z" /></g><g
           transform="translate(40.2554,183.6165)"
           id="g60"><path
             id="path62"
             style="fill:#231f20;fill-opacity:1;fill-rule:nonzero;stroke:none"
             d="M 0,0 C 0,-0.993 -0.178,-1.789 -0.533,-2.39 -0.889,-2.991 -1.394,-3.292 -2.05,-3.292 l -1.148,0 0,8.717 1.148,0 c 0.656,0 1.161,-0.299 1.517,-0.897 C -0.178,3.93 0,3.138 0,2.151 L 0,0 Z m -1.917,7.4 -3.637,0 0,-12.666 3.637,0 c 1.234,0 2.253,0.49 3.057,1.47 0.805,0.98 1.207,2.244 1.207,3.793 l 0,2.131 C 2.347,3.677 1.945,4.942 1.14,5.925 0.336,6.908 -0.683,7.4 -1.917,7.4" /></g><g
           transform="translate(46.9922,183.9091)"
           id="g64"><path
             id="path66"
             style="fill:#231f20;fill-opacity:1;fill-rule:nonzero;stroke:none"
             d="m 0,0 4.041,0 0,1.975 -4.041,0 0,3.157 4.735,0 0,1.975 -7.09,0 0,-12.666 7.107,0 0,1.975 L 0,-3.584 0,0 Z" /></g><g
           transform="translate(59.7408,191.0163)"
           id="g68"><path
             id="path70"
             style="fill:#231f20;fill-opacity:1;fill-rule:nonzero;stroke:none"
             d="m 0,0 -2.355,0 0,-12.666 6.456,0 0,1.975 -4.101,0 L 0,0 Z" /></g><g
           transform="translate(67.2812,185.588)"
           id="g72"><path
             id="path74"
             style="fill:#231f20;fill-opacity:1;fill-rule:nonzero;stroke:none"
             d="m 0,0 -0.05,0 -1.983,5.428 -2.57,0 3.38,-8.003 0,-4.663 2.347,0 0,4.506 3.438,8.16 -2.554,0 L 0,0 Z" /></g><g
           transform="translate(78.5337,182.8992)"
           id="g76"><path
             id="path78"
             style="fill:#231f20;fill-opacity:1;fill-rule:nonzero;stroke:none"
             d="m 0,0 c 0,-0.919 -0.16,-1.608 -0.479,-2.068 -0.32,-0.459 -0.783,-0.689 -1.389,-0.689 -0.611,0 -1.074,0.23 -1.388,0.689 -0.314,0.46 -0.471,1.149 -0.471,2.068 l 0,3.577 c 0,0.913 0.154,1.599 0.463,2.059 0.308,0.459 0.771,0.689 1.388,0.689 0.611,0 1.077,-0.231 1.397,-0.694 C -0.16,5.169 0,4.484 0,3.577 L 0,0 Z M -1.876,8.3 C -3.143,8.3 -4.157,7.878 -4.917,7.034 -5.678,6.19 -6.058,5.029 -6.058,3.55 l 0,-3.549 c 0,-1.485 0.38,-2.645 1.141,-3.48 0.76,-0.835 1.777,-1.253 3.049,-1.253 1.273,0 2.292,0.418 3.058,1.253 0.766,0.835 1.149,1.995 1.149,3.48 l 0,3.549 C 2.339,5.029 1.953,6.19 1.182,7.034 0.41,7.878 -0.609,8.3 -1.876,8.3" /></g><g
           transform="translate(88.9951,182.9435)"
           id="g80"><path
             id="path82"
             style="fill:#231f20;fill-opacity:1;fill-rule:nonzero;stroke:none"
             d="m 0,0 -0.049,-0.017 -3.678,8.09 -2.355,0 0,-12.666 2.355,0 0,8.081 0.05,0.018 3.677,-8.099 2.339,0 0,12.666 L 0,8.073 0,0 Z" /></g><g
           transform="translate(112.1264,91.0174)"
           id="g84"><path
             id="path86"
             style="fill:#231f20;fill-opacity:1;fill-rule:nonzero;stroke:none"
             d="m 0,0 c -0.009,-11.785 -0.018,-27.048 -0.018,-27.186 0,-19.52 -15.883,-35.403 -35.426,-35.406 -0.067,0 -0.134,0.004 -0.202,0.005 l 0,0 c -0.002,0 -0.004,0 -0.008,0 0,0 -0.002,0 -0.004,0 l 0,0 c -0.068,-10e-4 -0.134,-0.005 -0.202,-0.005 -19.542,0.003 -35.425,15.886 -35.425,35.406 0,0.14 -0.009,15.411 -0.019,27.186 l -6.522,0 c 0.009,-11.765 0.018,-27.027 0.018,-27.191 0,-23.116 18.811,-41.924 41.934,-41.924 0.074,0 0.148,0.005 0.222,0.006 0.075,-0.001 0.148,-0.006 0.223,-0.006 23.122,0 41.933,18.808 41.933,41.924 0,0.161 0.009,15.416 0.018,27.191 L 0,0 Z" /></g><g
           transform="translate(99.0453,91.0174)"
           id="g88"><path
             id="path90"
             style="fill:#231f20;fill-opacity:1;fill-rule:nonzero;stroke:none"
             d="m 0,0 c -0.01,-11.849 -0.019,-27.124 -0.019,-27.167 0,-12.314 -10.017,-22.334 -22.33,-22.338 -0.073,0 -0.143,0.01 -0.215,0.011 l 0,10e-4 c -0.003,0 -0.005,0 -0.009,0 0,0 -0.002,0 -0.004,0 l 0,-10e-4 c -0.072,-10e-4 -0.143,-0.011 -0.215,-0.011 -12.313,0.004 -22.331,10.024 -22.331,22.338 0,0.044 -0.009,15.325 -0.019,27.167 l -6.567,0 0.013,-20.295 c 0.004,-4.073 0.006,-6.824 0.006,-6.873 0,-15.938 12.97,-28.903 28.912,-28.903 0.07,0 0.138,0.004 0.207,0.005 0.07,-10e-4 0.138,-0.005 0.207,-0.005 15.942,0 28.912,12.965 28.912,28.903 0,0.049 0.002,2.8 0.006,6.873 L 6.567,0 0,0 Z" /></g><g
           transform="translate(85.8842,91.0174)"
           id="g92"><path
             id="path94"
             style="fill:#231f20;fill-opacity:1;fill-rule:nonzero;stroke:none"
             d="m 0,0 c -0.009,-12.048 -0.019,-26.911 -0.019,-26.957 0,-5.166 -4.184,-9.375 -9.342,-9.413 l 0,10e-4 -0.049,0 -0.049,0 0,-10e-4 c -5.157,0.038 -9.341,4.247 -9.341,9.413 0,0.046 -0.01,14.905 -0.02,26.957 l -6.582,0 c 0.01,-12.051 0.019,-26.911 0.019,-26.957 0,-8.81 7.161,-15.978 15.967,-15.994 l 0,0 c 0.002,0 0.006,0 0.006,0 0.003,0 0.004,0 0.007,0 l 0,0 c 8.806,0.016 15.967,7.184 15.967,15.994 0,0.046 0.009,14.909 0.018,26.957 L 0,0 Z" /></g><path
           id="path96"
           style="fill:#231f20;fill-opacity:1;fill-rule:nonzero;stroke:none"
           d="m 34.467,103.996 84.191,0 0,-6.489 -84.191,0 0,6.489 z" /><path
           id="path98"
           style="fill:#231f20;fill-opacity:1;fill-rule:nonzero;stroke:none"
           d="m 34.467,116.976 84.191,0 0,-6.489 -84.191,0 0,6.489 z" /><g
           transform="translate(104.178,135.2439)"
           id="g100"><path
             id="path102"
             style="fill:#231f20;fill-opacity:1;fill-rule:nonzero;stroke:none"
             d="m 0,0 c 0,0 2.712,-1.031 3.362,-1.943 0.422,-0.595 2.881,-1.293 2.881,-1.293 0,0 0.749,-0.053 1.727,-0.948 0.747,-0.684 0.985,-0.965 1.454,-1.098 l -24.909,0 c 0.077,0.405 0.101,1.08 -0.503,1.425 -0.396,0.221 -0.74,0.658 -1.186,0.872 -1.719,0.82 -1.907,0.519 -2.625,1.094 -0.404,0.298 -0.673,1.617 -0.673,1.617 0,0 3.142,3.097 3.744,3.88 0.756,0.978 1.052,1.368 1.391,1.851 2.364,0.221 4.844,0.648 5.697,1.134 0.242,0.145 0.462,0.274 0.671,0.396 C -8.701,6.835 -8.463,6.696 -8.256,6.571 -6.995,5.824 -3.821,4.485 -2.701,3.596 -1.579,2.694 0,0 0,0 m -66.66,2.525 c 0.855,0.354 2.74,-0.37 4.624,-0.026 2.878,0.522 6.984,1.96 8.367,2.581 1.257,0.549 3.501,2.704 4.196,3.275 0.683,0.579 1.402,0.744 1.402,0.744 0,0 0.834,-0.895 2.511,-2.38 1.682,-1.49 2.25,-2.181 2.835,-2.664 0.574,-0.485 1.276,-1.47 1.393,-1.864 0.462,-1.484 0.298,-3.949 0.298,-3.949 0,0 2.619,-0.929 3.459,-1.676 0.592,-0.527 1.088,-1.386 1.331,-1.848 l -26.818,0 c 0.068,0.446 0.098,1.434 -0.868,1.775 -0.705,0.298 -0.562,0.556 -2.052,1.071 -0.599,0.215 -0.935,0.463 -1.243,1.243 -0.296,0.783 -0.301,2.082 -0.301,2.082 0,0 0.134,1.339 0.866,1.636 m 39.275,5.619 c 0.589,-0.271 2.059,-0.906 3.654,-1.511 0.159,-0.416 0.275,-1.017 0.226,-1.854 -0.146,-2.092 -2.219,-4.69 -2.219,-4.69 0,0 1.049,-2.591 1.35,-2.968 0.294,-0.37 1.254,-1.143 1.577,-1.768 0.093,-0.185 0.209,-0.435 0.3,-0.635 l -5.697,0 c 0.094,0.778 -0.416,1.102 -0.553,1.237 -0.311,0.307 -0.582,0.915 -1.343,1.183 -2.661,0.948 -2.618,0.565 -3.387,1.18 -0.523,0.416 -1.843,1.292 -2.142,1.831 -0.297,0.539 -0.837,2.984 -0.846,5.073 0.005,1.263 -0.088,2.462 -0.175,3.213 2.453,0.423 6.319,1.031 9.255,-0.291 m 43.849,21.457 c 0,0 -0.135,0.245 -0.407,0.542 -0.269,0.304 -0.948,0.714 -1.275,1.034 -0.324,0.334 -0.713,0.853 -0.904,0.986 -0.184,0.138 -0.572,0.753 -0.752,0.895 -0.2,0.136 -0.418,1.14 -0.443,1.253 -0.021,0.106 -0.101,0.413 -0.402,0.572 -0.169,0.073 -0.634,0.38 -0.937,0.621 -0.293,0.248 -1.048,0.982 -1.048,0.982 0,0 -0.199,1.223 -0.491,1.87 -0.296,0.658 -0.415,0.903 -0.555,1.147 -0.129,0.248 -0.216,0.298 -0.288,0.681 0,0 -0.412,0.03 -0.794,-0.215 0,0 -0.785,0.599 -1.569,1.058 -0.792,0.466 -1.722,0.952 -2.105,1.028 -0.371,0.086 -0.881,0.38 -1.077,0.572 0,0 -0.557,0.026 -1.009,-0.05 -0.326,-0.043 -1.401,-0.152 -1.972,-0.238 -0.568,-0.076 -1.97,-0.311 -2.292,-0.334 -0.676,-0.046 -0.816,-0.099 -1.835,-0.291 0,0 -0.805,-0.142 -1.08,-0.247 -0.275,-0.11 -1.144,-0.447 -1.748,-0.523 -0.66,-0.079 -1.352,-0.082 -2.147,-0.211 -0.358,-0.063 -1.706,-0.602 -2.342,-0.75 -0.286,-0.07 -0.671,-0.116 -0.671,-0.116 0,0 0.129,-0.45 0.48,-0.532 0,0 -0.187,-0.403 -0.622,-0.618 -0.437,-0.225 -0.893,-0.41 -1.49,-0.632 -0.604,-0.208 -1.552,-0.588 -1.798,-0.783 0,0 0.19,-0.377 0.562,-0.578 0,0 0.09,-0.053 -0.423,-0.314 -0.522,-0.278 -1.699,-0.767 -2.233,-1.012 -0.552,-0.248 -1.297,-0.687 -1.664,-0.869 -0.518,-0.271 -0.57,-0.284 -1.066,-0.592 -0.486,-0.297 -0.237,-0.28 -0.237,-0.28 0,0 0.243,-0.053 0.588,-0.08 0.356,-0.026 0.547,-0.165 0.547,-0.165 0,0 0.037,-0.189 -0.212,-0.41 -0.242,-0.215 -0.599,-0.701 -1.438,-1.276 -0.417,-0.284 -0.78,-0.608 -1.239,-0.929 -0.462,-0.32 -0.928,-0.869 -1.094,-0.981 l 0.494,-0.433 -0.074,-0.341 c -0.213,-0.132 -0.48,-0.28 -0.818,-0.413 -0.383,-0.168 -3.65,-0.608 -7.428,-0.562 -6.309,0.086 -8.046,0.899 -11.259,1.045 -3.219,0.152 -5.607,-0.562 -8.545,-1.458 -0.577,-0.175 -1.03,-0.35 -1.373,-0.525 -1.235,-0.258 -2.482,-0.602 -3.623,-1.041 -4.088,-1.567 -11.222,-7.473 -13.219,-8.313 -1.969,-0.833 -3.079,-0.872 -4.478,-0.697 -1.397,0.172 -1.946,0.525 -1.946,0.525 0,0 -0.716,1.514 -1.534,2.132 -1.07,0.787 -3.702,1.719 -3.702,1.719 0,0 -0.46,-1.729 0.475,-3.395 1.122,-1.989 3.317,-1.864 4.108,-2.188 1.401,-0.562 4.738,-1.239 7.553,-0.109 2.526,1.015 5.088,2.697 6.912,3.722 1.817,1.018 4.729,1.904 7.183,2.178 -0.114,-0.426 -0.238,-0.843 -0.37,-1.213 -0.687,-2.089 -3.222,-6.514 -3.739,-7.252 -0.597,-0.865 -2.968,-3.738 -3.388,-4.088 -0.409,-0.357 -1.413,-0.754 -2.672,-0.985 -1.386,-0.258 -5.36,-0.658 -5.36,-0.658 0,0 -0.702,-3.553 -1.582,-5.721 -0.359,-0.882 -1.209,-2.637 -1.209,-2.637 0,0 1.492,-1.389 1.965,-3.13 0.233,-0.447 0.624,-1.18 0.93,-1.408 l 0,-6.168 0.006,0 0,-0.178 84.192,0 0,6.489 -0.003,0 c 0.157,0.493 0.385,1.609 -0.586,2.074 -1.257,0.599 -0.245,1.075 -3.163,2.182 C 9.894,-0.714 8.503,-0.268 8.03,0.122 7.56,0.502 5.036,4.032 3.781,5.52 2.519,7.017 -0.055,10.434 -0.055,10.434 l -0.568,1.349 0.103,1.021 c 0.158,0.166 0.33,0.331 0.48,0.522 0.457,0.49 1.152,1.217 1.35,1.623 0.478,0.969 0.309,0.023 0.605,0.549 0.222,0.4 1.085,0.879 1.447,1.107 0.354,0.215 0.882,0.869 0.882,0.869 0,0 0.013,-0.39 0.16,-0.766 0,0 0.252,0.208 0.653,0.697 0.401,0.489 0.264,0.536 0.755,1.031 0.491,0.486 0.84,1.458 1.151,2.089 0.317,0.621 0.502,0.803 0.584,0.939 0,0 0.209,-0.499 0.346,-0.85 0,0 0.322,0.311 0.456,0.622 0.133,0.31 0.225,0.714 0.447,1.067 0.221,0.36 0.391,0.823 0.605,0.916 0.226,0.092 0.649,0.353 1.103,0.377 0.331,0.016 0.785,-0.172 1.196,-0.258 0.391,-0.096 0.577,0.086 0.845,-0.268 0.264,-0.357 0.626,-0.542 0.626,-0.542 0,0 0.006,0.056 0.33,0.218 0.331,0.169 0.35,0.162 0.655,0.38 0.302,0.222 0.254,0.331 0.484,0.549 0.25,0.215 0.39,0.459 0.49,0.872 0.114,0.4 -0.071,0.642 0.124,0.833 0.193,0.185 0.584,0.195 0.783,0.668 0.186,0.456 0.131,0.539 0.213,0.618 0.079,0.083 0.13,0.41 0.13,0.41 0,0 0.552,0.459 0.631,0.839 0.076,0.38 0.159,0.519 0.33,0.685 0,0 -0.144,0.548 -0.877,1.001" /></g><g
           transform="translate(175.2908,208.2563)"
           id="g104"><path
             id="path106"
             style="fill:none;stroke:#231f20;stroke-width:0.76800001;stroke-linecap:butt;stroke-linejoin:miter;stroke-miterlimit:10;stroke-dasharray:none;stroke-opacity:1"
             d="M 0,0 0,-186.354" /></g><g
           transform="translate(308.2576,145.5983)"
           id="g108"><path
             id="path110"
             style="fill:#f14b1e;fill-opacity:1;fill-rule:nonzero;stroke:none"
             d="m 0,0 0,15.037 -45.248,0.079 0,-15.112 12.109,-7.638 -12.109,-7.474 0,-15.112 45.248,-0.079 0,15.038 -26.084,0 -0.087,0.148 11.059,7.484 -11.054,7.478 L -26.078,0 0,0 Z" /></g><g
           transform="translate(323.2332,160.6349)"
           id="g112"><path
             id="path114"
             style="fill:#f14b1e;fill-opacity:1;fill-rule:nonzero;stroke:none"
             d="m 0,0 0,-75.162 c 0,-20.756 -16.887,-37.643 -37.644,-37.643 -20.756,0 -37.643,16.887 -37.643,37.643 l 0,75.162 -15.646,0 0,-75.162 c 0,-29.384 23.906,-53.289 53.289,-53.289 29.384,0 53.29,23.905 53.29,53.289 L 15.646,0 0,0 Z" /></g><path
           id="path116"
           style="fill:#181817;fill-opacity:1;fill-rule:nonzero;stroke:none"
           d="m 338.879,190.859 -106.579,0 0,-15.112 106.579,0 0,15.112 z" /><g
           transform="translate(285.5897,107.7432)"
           id="g118"><path
             id="path120"
             style="fill:#f14b1e;fill-opacity:1;fill-rule:nonzero;stroke:none"
             d="m 0,0 -22.668,0 0,-15.112 22.668,0 c 4.173,0 7.556,-3.383 7.556,-7.556 0,-4.173 -3.383,-7.556 -7.556,-7.556 l -7.556,0 0,-15.112 7.556,0 c 12.519,0 22.668,10.149 22.668,22.668 C 22.668,-10.149 12.519,0 0,0" /></g><g
           transform="translate(361.6342,143.9562)"
           id="g122"><path
             id="path124"
             style="fill:#f14b1e;fill-opacity:1;fill-rule:nonzero;stroke:none"
             d="m 0,0 0,16.545 6.361,0 0,-16.579 c 0,-0.778 0.338,-1.218 1.218,-1.218 0.879,0 1.218,0.44 1.218,1.184 l 0,16.613 6.361,0 0,-16.545 c 0,-3.789 -2.267,-6.395 -7.579,-6.395 C 2.266,-6.395 0,-3.789 0,0" /></g><g
           transform="translate(380.4428,160.5009)"
           id="g126"><path
             id="path128"
             style="fill:#f14b1e;fill-opacity:1;fill-rule:nonzero;stroke:none"
             d="m 0,0 6.226,0 3.924,-9.27 0,9.27 6.158,0 0,-22.533 -6.225,0 -3.925,9.27 0,-9.27 -6.158,0 L 0,0 Z" /></g><path
           id="path130"
           style="fill:#f14b1e;fill-opacity:1;fill-rule:nonzero;stroke:none"
           d="m 400.537,160.501 6.361,0 0,-22.533 -6.361,0 0,22.533 z" /><g
           transform="translate(421.9867,137.9676)"
           id="g132"><path
             id="path134"
             style="fill:#f14b1e;fill-opacity:1;fill-rule:nonzero;stroke:none"
             d="m 0,0 -8.323,0 -4.095,22.533 6.903,0 1.353,-14.683 1.354,14.683 6.902,0 L 0,0 Z" /></g><g
           transform="translate(428.6831,160.5009)"
           id="g136"><path
             id="path138"
             style="fill:#f14b1e;fill-opacity:1;fill-rule:nonzero;stroke:none"
             d="m 0,0 12.316,0 0,-5.143 -5.956,0 0,-3.485 5.38,0 0,-5.142 -5.38,0 0,-3.621 5.989,0 0,-5.142 L 0,-22.533 0,0 Z" /></g><g
           transform="translate(452.0258,150.0464)"
           id="g140"><path
             id="path142"
             style="fill:#f14b1e;fill-opacity:1;fill-rule:nonzero;stroke:none"
             d="m 0,0 c 0.71,0 1.048,0.338 1.048,1.049 l 0,3.248 C 1.048,5.008 0.71,5.346 0,5.346 l -1.388,0 L -1.388,0 0,0 Z m -0.88,-4.872 -0.508,0 0,-7.207 -6.292,0 0,22.533 9.135,0 c 4.432,0 5.954,-2.063 5.954,-5.683 l 0,-4.128 c 0,-2.166 -0.643,-3.587 -2.097,-4.466 l 2.842,-8.256 -6.665,0 -2.369,7.207 z" /></g><g
           transform="translate(462.7137,138.2383)"
           id="g144"><path
             id="path146"
             style="fill:#f14b1e;fill-opacity:1;fill-rule:nonzero;stroke:none"
             d="M 0,0 0.711,5.515 C 1.895,5.143 3.485,4.906 4.568,4.906 c 1.556,0 2.03,0.304 2.03,1.319 0,1.015 -0.203,1.185 -1.861,1.523 -4.568,0.88 -5.041,2.876 -5.041,7.477 0,5.481 1.929,7.444 7.071,7.444 1.657,0 3.857,-0.305 5.041,-0.677 l -0.609,-5.38 c -0.779,0.204 -2.165,0.474 -3.349,0.474 -1.421,0 -1.793,-0.237 -1.793,-1.184 0,-0.948 0.067,-1.117 2.3,-1.692 3.519,-0.913 4.601,-1.894 4.601,-7.308 0,-4.906 -1.928,-7.579 -7.172,-7.579 C 4.264,-0.677 1.895,-0.44 0,0" /></g><path
           id="path148"
           style="fill:#f14b1e;fill-opacity:1;fill-rule:nonzero;stroke:none"
           d="m 478.714,160.501 6.361,0 0,-22.533 -6.361,0 0,22.533 z" /><g
           transform="translate(491.6375,155.2906)"
           id="g150"><path
             id="path152"
             style="fill:#f14b1e;fill-opacity:1;fill-rule:nonzero;stroke:none"
             d="m 0,0 -3.688,0 0,5.21 13.737,0 0,-5.21 -3.688,0 0,-17.323 -6.361,0 L 0,0 Z" /></g><g
           transform="translate(507.538,161.4825)"
           id="g154"><path
             id="path156"
             style="fill:#f14b1e;fill-opacity:1;fill-rule:nonzero;stroke:none"
             d="M 0,0 1.928,5.515 8.628,4.364 5.955,0 0,0 Z m -3.045,-0.982 12.315,0 0,-5.142 -5.954,0 0,-3.485 5.379,0 0,-5.143 -5.379,0 0,-3.62 5.988,0 0,-5.143 -12.349,0 0,22.533 z" /></g><g
           transform="translate(359.7501,104.5838)"
           id="g158"><path
             id="path160"
             style="fill:#f14b1e;fill-opacity:1;fill-rule:nonzero;stroke:none"
             d="m 0,0 c 1.048,1.015 1.827,1.827 1.827,3.485 l 0,22.127 6.36,0 0,-22.229 c 0,-3.687 -1.522,-5.177 -4.702,-7.308 L 0,0 Z" /></g><g
           transform="translate(371.6582,130.196)"
           id="g162"><path
             id="path164"
             style="fill:#f14b1e;fill-opacity:1;fill-rule:nonzero;stroke:none"
             d="m 0,0 12.316,0 0,-5.143 -5.956,0 0,-3.484 5.38,0 0,-5.143 -5.38,0 0,-3.621 5.989,0 0,-5.142 L 0,-22.533 0,0 Z" /></g><g
           transform="translate(394.1209,116.6967)"
           id="g166"><path
             id="path168"
             style="fill:#f14b1e;fill-opacity:1;fill-rule:nonzero;stroke:none"
             d="M 0,0 1.759,0 0.879,8.357 0,0 Z m 9.338,-9.034 -6.632,0 -0.439,3.992 -2.809,0 -0.406,-3.992 -6.631,0 4.466,22.533 7.984,0 4.467,-22.533 z" /></g><g
           transform="translate(406.1633,130.196)"
           id="g170"><path
             id="path172"
             style="fill:#f14b1e;fill-opacity:1;fill-rule:nonzero;stroke:none"
             d="m 0,0 6.225,0 3.925,-9.27 0,9.27 6.158,0 0,-22.533 -6.226,0 -3.924,9.27 0,-9.27 -6.158,0 L 0,0 Z" /></g><g
           transform="translate(453.8308,107.6627)"
           id="g174"><path
             id="path176"
             style="fill:#f14b1e;fill-opacity:1;fill-rule:nonzero;stroke:none"
             d="m 0,0 -5.922,0 -0.202,9.034 -1.421,-4.5 -5.211,0 -1.421,4.5 L -14.38,0 l -5.92,0 0.778,22.533 6.157,0 3.215,-10.522 3.213,10.522 6.158,0 L 0,0 Z" /></g><g
           transform="translate(465.6689,113.6513)"
           id="g178"><path
             id="path180"
             style="fill:#f14b1e;fill-opacity:1;fill-rule:nonzero;stroke:none"
             d="m 0,0 0,10.556 c 0,0.812 -0.338,1.32 -1.218,1.32 -0.88,0 -1.219,-0.508 -1.219,-1.32 L -2.437,0 c 0,-0.812 0.339,-1.319 1.219,-1.319 C -0.338,-1.319 0,-0.812 0,0 m -8.797,0.609 0,9.338 c 0,4.196 2.03,7.004 7.579,7.004 5.549,0 7.578,-2.808 7.578,-7.004 l 0,-9.338 c 0,-4.196 -2.029,-7.004 -7.578,-7.004 -5.549,0 -7.579,2.808 -7.579,7.004" /></g><g
           transform="translate(475.4096,130.196)"
           id="g182"><path
             id="path184"
             style="fill:#f14b1e;fill-opacity:1;fill-rule:nonzero;stroke:none"
             d="m 0,0 6.226,0 3.924,-9.27 0,9.27 6.158,0 0,-22.533 -6.226,0 -3.924,9.27 0,-9.27 -6.158,0 L 0,0 Z" /></g><g
           transform="translate(495.4367,130.196)"
           id="g186"><path
             id="path188"
             style="fill:#f14b1e;fill-opacity:1;fill-rule:nonzero;stroke:none"
             d="m 0,0 6.226,0 3.924,-9.27 0,9.27 6.158,0 0,-22.533 -6.226,0 -3.924,9.27 0,-9.27 -6.158,0 L 0,0 Z" /></g><g
           transform="translate(515.4628,130.196)"
           id="g190"><path
             id="path192"
             style="fill:#f14b1e;fill-opacity:1;fill-rule:nonzero;stroke:none"
             d="m 0,0 12.316,0 0,-5.143 -5.955,0 0,-3.484 5.379,0 0,-5.143 -5.379,0 0,-3.621 5.989,0 0,-5.142 -12.35,0 L 0,0 Z" /></g><g
           transform="translate(533.8991,124.9857)"
           id="g194"><path
             id="path196"
             style="fill:#f14b1e;fill-opacity:1;fill-rule:nonzero;stroke:none"
             d="m 0,0 -3.688,0 0,5.21 13.737,0 0,-5.21 -3.688,0 0,-17.323 -6.361,0 L 0,0 Z" /></g><g
           transform="translate(366.6437,77.2251)"
           id="g198"><path
             id="path200"
             style="fill:#181817;fill-opacity:1;fill-rule:nonzero;stroke:none"
             d="m 0,0 c -1.605,0 -3.625,0.277 -5.202,0.885 l 0.305,1.329 c 1.659,-0.498 3.347,-0.747 4.953,-0.747 3.155,0 4.012,0.941 4.012,3.293 0,2.85 -0.028,3.154 -4.123,4.095 -4.455,1.024 -4.953,1.826 -4.953,5.534 0,3.016 1.107,4.593 5.728,4.593 1.605,0 3.514,-0.276 4.759,-0.636 L 5.286,16.963 c -1.357,0.304 -3.073,0.553 -4.511,0.553 -3.652,0 -4.151,-0.886 -4.151,-3.182 0,-2.989 0.083,-3.127 3.958,-4.096 C 5.424,9.021 5.7,8.329 5.7,4.842 5.7,1.826 4.677,0 0,0" /></g><g
           transform="translate(378.657,83.7558)"
           id="g202"><path
             id="path204"
             style="fill:#181817;fill-opacity:1;fill-rule:nonzero;stroke:none"
             d="M 0,0 7.582,0 3.791,11.234 0,0 Z m 8.08,-1.412 -8.578,0 -1.715,-4.842 -1.605,0 6.419,18.429 2.407,0 6.421,-18.429 -1.605,0 -1.744,4.842 z" /></g><path
           id="path206"
           style="fill:#181817;fill-opacity:1;fill-rule:nonzero;stroke:none"
           d="m 394.766,77.502 -1.633,0 0,18.429 1.633,0 0,-18.429 z" /><g
           transform="translate(400.8824,94.326)"
           id="g208"><path
             id="path210"
             style="fill:#181817;fill-opacity:1;fill-rule:nonzero;stroke:none"
             d="m 0,0 0,-16.824 -1.55,0 0,18.429 2.38,0 8.744,-16.852 0,16.852 1.549,0 0,-18.429 -2.379,0 L 0,0 Z" /></g><g
           transform="translate(420.3119,94.4641)"
           id="g212"><path
             id="path214"
             style="fill:#181817;fill-opacity:1;fill-rule:nonzero;stroke:none"
             d="m 0,0 -5.673,0 0,1.467 12.978,0 0,-1.467 -5.673,0 0,-16.962 -1.632,0 L 0,0 Z" /></g><path
           id="path216"
           style="fill:#181817;fill-opacity:1;fill-rule:nonzero;stroke:none"
           d="m 427.343,85.942 6.42,0 0,-1.356 -6.42,0 0,1.356 z" /><g
           transform="translate(441.3751,98.449)"
           id="g218"><path
             id="path220"
             style="fill:#181817;fill-opacity:1;fill-rule:nonzero;stroke:none"
             d="M 0,0 C 1.106,0.664 2.213,1.356 3.376,2.213 L 4.178,0.996 C 3.126,0.249 1.909,-0.526 0.747,-1.135 L 0,0 Z m -3.874,-2.518 10.376,0 0,-1.467 -8.743,0 0,-6.834 8.134,0 0,-1.467 -8.134,0 0,-7.195 8.771,0 0,-1.466 -10.404,0 0,18.429 z" /></g><g
           transform="translate(455.6569,94.4641)"
           id="g222"><path
             id="path224"
             style="fill:#181817;fill-opacity:1;fill-rule:nonzero;stroke:none"
             d="m 0,0 -5.672,0 0,1.467 12.977,0 0,-1.467 -5.672,0 0,-16.962 -1.633,0 L 0,0 Z" /></g><path
           id="path226"
           style="fill:#181817;fill-opacity:1;fill-rule:nonzero;stroke:none"
           d="m 467.365,77.502 -1.632,0 0,18.429 1.632,0 0,-18.429 z" /><g
           transform="translate(471.9327,95.9307)"
           id="g228"><path
             id="path230"
             style="fill:#181817;fill-opacity:1;fill-rule:nonzero;stroke:none"
             d="m 0,0 10.376,0 0,-1.467 -8.743,0 0,-6.834 8.135,0 0,-1.467 -8.135,0 0,-7.194 8.771,0 0,-1.467 L 0,-18.429 0,0 Z" /></g><g
           transform="translate(487.7643,94.326)"
           id="g232"><path
             id="path234"
             style="fill:#181817;fill-opacity:1;fill-rule:nonzero;stroke:none"
             d="m 0,0 0,-16.824 -1.55,0 0,18.429 2.38,0 8.743,-16.852 0,16.852 1.55,0 0,-18.429 -2.379,0 L 0,0 Z" /></g><g
           transform="translate(504.869,94.326)"
           id="g236"><path
             id="path238"
             style="fill:#181817;fill-opacity:1;fill-rule:nonzero;stroke:none"
             d="m 0,0 0,-16.824 -1.55,0 0,18.429 2.38,0 8.744,-16.852 0,16.852 1.549,0 0,-18.429 -2.379,0 L 0,0 Z" /></g><g
           transform="translate(520.4243,95.9307)"
           id="g240"><path
             id="path242"
             style="fill:#181817;fill-opacity:1;fill-rule:nonzero;stroke:none"
             d="m 0,0 10.377,0 0,-1.467 -8.744,0 0,-6.834 8.136,0 0,-1.467 -8.136,0 0,-7.194 8.771,0 0,-1.467 L 0,-18.429 0,0 Z" /></g></g></g></g></svg>